HIERARCHY
ROOT Hips
{
  OFFSET -35.2597 29.1586 114.425
  CHANNELS 6 Xposition Yposition Zposition Zrotation Xrotation Yrotation
  JOINT LeftUpLeg
  {
    OFFSET 8.64259 1.95398 -2.38835
    CHANNELS 3 Zrotation Xrotation Yrotation
    JOINT LeftLeg
    {
      OFFSET 43.7702 0 0
      CHANNELS 3 Zrotation Xrotation Yrotation
      JOINT LeftFoot
      {
        OFFSET 40.6238 0 0
        CHANNELS 3 Zrotation Xrotation Yrotation
        JOINT LeftToeBase
        {
          OFFSET 12.7242 0 0
          CHANNELS 3 Zrotation Xrotation Yrotation
          End Site
          {
            OFFSET 0 0 0
          }
        }
      }
    }
  }
  JOINT RightUpLeg
  {
    OFFSET -8.2249 1.95398 -2.59336
    CHANNELS 3 Zrotation Xrotation Yrotation
    JOINT RightLeg
    {
      OFFSET 43.5653 0 0
      CHANNELS 3 Zrotation Xrotation Yrotation
      JOINT RightFoot
      {
        OFFSET 40.6238 0 0
        CHANNELS 3 Zrotation Xrotation Yrotation
        JOINT RightToeBase
        {
          OFFSET 12.7242 0 0
          CHANNELS 3 Zrotation Xrotation Yrotation
          End Site
          {
            OFFSET 0 0 0
          }
        }
      }
    }
  }
  JOINT Spine
  {
    OFFSET 0.165834 0.87714 6.61349
    CHANNELS 3 Zrotation Xrotation Yrotation
    JOINT Spine1
    {
      OFFSET 7.38963 1.71661e-005 0
      CHANNELS 3 Zrotation Xrotation Yrotation
      JOINT Spine2
      {
        OFFSET 11.9445 1.14441e-005 0
        CHANNELS 3 Zrotation Xrotation Yrotation
        JOINT Spine3
        {
          OFFSET 14.7254 4.19617e-005 0
          CHANNELS 3 Zrotation Xrotation Yrotation
          JOINT Spine4
          {
            OFFSET 10.9679 0 0
            CHANNELS 3 Zrotation Xrotation Yrotation
            JOINT RightShoulder
            {
              OFFSET 2.46616 -1.6653 3.69651
              CHANNELS 3 Zrotation Xrotation Yrotation
              JOINT RightArm
              {
                OFFSET 13.0012 0 0
                CHANNELS 3 Zrotation Xrotation Yrotation
                JOINT RightForeArm
                {
                  OFFSET 28.7848 1.62311e-005 0
                  CHANNELS 3 Zrotation Xrotation Yrotation
                  JOINT RightHand
                  {
                    OFFSET 26.5688 1.62095e-005 0
                    CHANNELS 3 Zrotation Xrotation Yrotation
                    End Site
                    {
                      OFFSET 0 0 0
                    }
                  }
                }
              }
            }
            JOINT LeftShoulder
            {
              OFFSET 2.38034 -1.29275 -3.7523
              CHANNELS 3 Zrotation Xrotation Yrotation
              JOINT LeftArm
              {
                OFFSET 16.3182 6.07031e-005 0
                CHANNELS 3 Zrotation Xrotation Yrotation
                JOINT LeftForeArm
                {
                  OFFSET 27.0901 0 0
                  CHANNELS 3 Zrotation Xrotation Yrotation
                  JOINT LeftHand
                  {
                    OFFSET 24.5451 1.51738e-005 0
                    CHANNELS 3 Zrotation Xrotation Yrotation
                    End Site
                    {
                      OFFSET 0 0 0
                    }
                  }
                }
              }
            }
            JOINT Neck
            {
              OFFSET 5.0226 -0.0266342 0
              CHANNELS 3 Zrotation Xrotation Yrotation
              JOINT Head
              {
                OFFSET 6.69364 2.86102e-005 0
                CHANNELS 3 Zrotation Xrotation Yrotation
                End Site
                {
                  OFFSET 0 0 0
                }
              }
            }
          }
        }
      }
    }
  }
}
MOTION
Frames:	9
Frame Time:	0.0416667
-269.814 94.4993 -231.35 -111.111 44.5664 -70.7609 -173.686 15.2252 93.7045 -42.5092 19.8129 0.859587 67.7098 5.85675 2.34987 18.6873 -3.69087 -2.4831 168.008 -2.16408 80.6652 -73.6555 -18.0499 -3.69501 65.0823 -3.3617 -1.88686 21.256 0.653058 7.01568 2.05212 7.58862 -90.7572 11.7308 3.72618 -1.90116 0.0635344 3.63891 -2.06345 -22.5123 4.12504 -0.691817 -2.49961 4.12505 -0.69183 93.9409 -43.5712 -95.8641 17.3039 48.0166 56.8411 -51.9197 19.2119 -109.117 -23.4681 12.3438 -61.4996 -80.4708 -39.6487 92.499 -17.134 -21.501 77.0994 62.8079 -21.2547 -102.633 -11.4891 6.40335 -75.2336 12.4371 -6.34334 -0.931161 -3.38074 -5.94261 -0.0963452 
-266.57 96.1368 -228.133 -110.679 43.7377 -71.0447 -174.855 14.6246 93.5432 -34.1861 22.9437 1.02876 59.0954 -0.358 2.67313 18.8817 -3.49327 -2.64825 169.681 -8.98111 83.6524 -65.9692 -20.8717 -4.01479 65.6775 -3.69339 -1.8131 23.3048 -0.126072 7.12397 2.51718 7.41452 -90.6558 12.0909 4.69443 -1.82363 0.42683 4.60963 -2.02883 -22.1757 5.025 -0.325163 -2.16307 5.025 -0.325164 93.5698 -38.6742 -97.4823 15.227 49.4607 62.7707 -55.3363 20.8728 -108.453 -22.8064 12.6871 -64.3218 -79.7714 -37.3462 93.5847 -14.6992 -26.8565 81.4007 64.3951 -24.6301 -103.484 -10.1031 6.15911 -81.516 9.73855 -9.03243 -2.21624 -3.15322 -8.31359 -0.704363 
-263.399 97.6894 -224.717 -110.224 43.4947 -72.2608 -175.498 12.2347 92.602 -21.673 23.9719 0.568678 49.1678 -7.36333 0.493173 17.7896 -3.17974 -4.01965 170.92 -13.8598 85.2351 -57.684 -22.0939 -4.37006 67.7401 -5.19946 -2.24403 23.8278 -0.487052 7.64212 2.77375 7.33932 -90.4326 12.2401 5.30813 -1.45685 0.578902 5.23885 -1.68964 -22.0437 5.49984 0.21062 -2.03108 5.49985 0.21061 93.3079 -35.4799 -98.7075 14.6659 48.3664 65.6429 -59.9587 22.2478 -106.863 -22.2976 12.8493 -66.0898 -79.0002 -37.1456 94.9471 -11.2348 -35.3744 84.2268 65.9375 -27.7014 -104.01 -9.09426 5.6512 -85.915 8.81031 -10.3423 -2.41714 -5.3907 -9.52051 -2.37795 
-259.639 98.7922 -221.296 -106.514 42.8767 -75.5612 -175.757 14.4573 92.1429 -16.915 23.307 -0.185524 51.4696 -5.86878 -1.37537 11.4509 -11.8292 3.39987 171.515 -14.6415 87.194 -48.9416 -18.4788 -2.9827 70.6568 -6.98776 -0.564135 24.0936 -0.740185 8.12361 2.63788 6.98739 -90.1735 12.9348 5.15433 -0.972796 1.27353 5.10652 -1.19928 -21.3436 5.20773 0.625558 -1.33095 5.20776 0.625567 92.9753 -33.7416 -99.7672 14.6548 44.2429 68.6323 -61.9249 22.0508 -105.753 -22.5544 13.4276 -67.7373 -79.8194 -37.2482 93.4924 -8.35344 -41.2431 90.0051 66.1365 -30.2787 -104.919 -6.65369 3.66352 -87.2966 8.53517 -10.5056 -2.56942 -8.25824 -9.5218 -3.9329 
-255.513 99.0016 -217.498 -101.878 41.8997 -79.7361 -176.425 19.584 91.2749 -20.808 22.3332 -0.322484 56.589 -2.47565 0.502457 11.388 -12.2221 3.94122 171.151 -12.0804 88.3568 -42.305 -13.7976 -0.838445 70.6918 -7.33694 -1.88012 26.2346 -1.57957 8.45873 2.41535 6.76356 -89.9501 13.37 4.81644 -0.511404 1.70777 4.78925 -0.723383 -20.8976 4.74694 0.963155 -0.884909 4.74696 0.963151 93.2624 -34.0437 -99.144 15.8446 37.7273 71.3415 -58.5643 20.2127 -106.353 -24.877 14.4623 -66.2986 -80.6766 -41.5703 92.2746 -8.07171 -45.0652 87.1083 65.4859 -30.9941 -105.567 -5.31631 2.4496 -85.943 11.1128 -10.2941 -0.0422225 -9.8356 -9.57672 -6.55073 
-250.974 98.2834 -213.456 -98.8696 40.4261 -82.5908 -176.723 23.94 91.0532 -28.3022 22.2301 -0.140795 60.457 0.529573 2.05743 14.9922 -8.37304 1.67673 171.482 -7.14112 89.8175 -41.1349 -7.79439 0.568104 70.8615 -7.2417 -3.01396 22.5084 0.0361216 7.48887 2.12128 6.86945 -89.7976 13.1472 4.30778 -0.127187 1.48338 4.298 -0.317021 -21.1064 4.1465 1.17565 -1.09371 4.14648 1.17565 92.7137 -37.4913 -99.3036 17.7958 30.7219 73.3193 -53.1563 17.216 -106.949 -28.9625 15.2504 -61.1062 -81.6149 -46.2194 91.0812 -12.6033 -39.5345 76.2257 60.4318 -28.4199 -107.336 -0.776136 -1.5258 -79.1368 16.499 -9.92403 2.41968 -10.5794 -9.64488 -8.31995 
-246.285 97.2372 -209.242 -98.4965 40.1673 -83.5112 -175.659 27.582 91.6022 -41.357 22.8184 -0.240085 67.6525 5.51988 2.20856 17.2445 -8.67693 4.12345 171.985 -2.24358 89.5466 -41.7096 -6.31203 0.662086 70.5211 -7.17348 -4.75341 19.4672 0.771361 8.44811 1.87195 7.21251 -89.7134 12.4537 3.85582 0.128772 0.78842 3.85774 -0.0413121 -21.7887 3.63861 1.28318 -1.7761 3.63862 1.28319 90.7166 -42.479 -101.509 20.5229 23.4259 72.9915 -49.2749 12.2352 -104.165 -36.4771 15.4538 -50.4349 -83.3019 -50.8946 88.8902 -15.902 -32.4993 62.8364 55.313 -23.9861 -107.757 -0.11916 -1.63137 -71.5208 22.2272 -8.87243 3.47207 -11.2823 -9.01355 -8.0414 
-241.545 95.9545 -204.914 -100.382 40.6961 -83.6557 -173.559 28.6349 92.2065 -54.1055 22.4991 -0.331583 71.9442 8.24956 1.37872 21.4554 -6.58087 4.79314 172.402 1.66574 89.4499 -44.501 -7.96615 -0.495535 70.8554 -7.60544 -5.85691 29.43 -2.22034 6.76757 1.3784 7.53654 -89.7019 11.8002 2.88136 0.288747 0.132421 2.8913 0.161546 -22.4252 2.66127 1.14196 -2.41251 2.66129 1.14197 89.1197 -44.4467 -103.633 24.7833 16.8271 68.9786 -50.2776 2.95968 -97.3013 -44.3565 13.9034 -39.0659 -84.7728 -54.9871 87.1839 -17.8428 -28.7973 49.8232 52.5839 -20.3554 -106.795 -0.205573 -1.45771 -69.2691 24.3767 -5.85879 4.28802 -11.186 -6.50502 -7.27498 
-237.041 94.503 -200.727 -102.546 41.7523 -83.3924 -170.82 28.5236 93.62 -65.9199 21.5762 0.00278525 71.9758 7.92622 1.23324 22.4764 -5.10867 3.32565 173.214 4.67459 88.1322 -47.7348 -9.66977 -2.20523 74.0475 -10.1934 -4.84477 35.5418 -3.9136 4.96441 0.924665 7.84845 -89.6424 11.1734 2.00666 0.515511 -0.496037 2.02738 0.426658 -23.0405 1.75892 1.09491 -3.0278 1.75892 1.09491 91.7024 -44.8187 -99.3146 26.7566 15.2932 62.2052 -60.2543 -7.04423 -88.1357 -40.966 11.3576 -35.4484 -86.6652 -56.0623 84.6381 -19.5376 -23.6272 36.6706 49.5523 -17.8016 -106.367 3.03634 -3.52788 -69.223 24.9256 -3.20682 3.52168 -10.0905 -3.89987 -5.55653 
